<svg id="Groupe_79" data-name="Groupe 79" xmlns="http://www.w3.org/2000/svg" width="55.443" height="7.942" viewBox="0 0 55.443 7.942">
  <path id="Tracé_108" data-name="Tracé 108" d="M82.77,158.82a3.971,3.971,0,1,0-4.288-3.627A3.972,3.972,0,0,0,82.77,158.82Zm-.433-5.186a1.233,1.233,0,1,1-1.126,1.331A1.233,1.233,0,0,1,82.336,153.634Z" transform="translate(-78.468 -150.892)" fill="#e20016"/>
  <path id="Tracé_109" data-name="Tracé 109" d="M91.1,158.82a3.971,3.971,0,1,0-4.287-3.627A3.971,3.971,0,0,0,91.1,158.82Zm-.432-5.186a1.233,1.233,0,1,1-1.126,1.331A1.231,1.231,0,0,1,90.669,153.634Z" transform="translate(-79.054 -150.892)" fill="#ff5b00"/>
  <path id="Tracé_110" data-name="Tracé 110" d="M99.661,158.82a3.971,3.971,0,1,0-4.287-3.627A3.971,3.971,0,0,0,99.661,158.82Zm-.432-5.186a1.233,1.233,0,1,1-1.126,1.331A1.231,1.231,0,0,1,99.228,153.634Z" transform="translate(-79.656 -150.892)" fill="#0d16bf"/>
  <path id="Tracé_111" data-name="Tracé 111" d="M108.294,158.82a3.971,3.971,0,1,0-4.287-3.627A3.971,3.971,0,0,0,108.294,158.82Zm-.432-5.186a1.233,1.233,0,1,1-1.126,1.331A1.232,1.232,0,0,1,107.861,153.634Z" transform="translate(-80.264 -150.892)" fill="#66dc00"/>
  <path id="Tracé_112" data-name="Tracé 112" d="M116.675,158.82a3.971,3.971,0,1,0-4.288-3.627A3.971,3.971,0,0,0,116.675,158.82Zm-.433-5.186a1.233,1.233,0,1,1-1.126,1.331A1.233,1.233,0,0,1,116.241,153.634Z" transform="translate(-80.853 -150.892)" fill="#0c0301"/>
  <path id="Tracé_113" data-name="Tracé 113" d="M125.234,158.82a3.971,3.971,0,1,0-4.287-3.627A3.971,3.971,0,0,0,125.234,158.82Zm-.433-5.186a1.233,1.233,0,1,1-1.126,1.331A1.233,1.233,0,0,1,124.8,153.634Z" transform="translate(-81.455 -150.892)" fill="#0089ff"/>
  <path id="Tracé_114" data-name="Tracé 114" d="M133.865,158.82a3.971,3.971,0,1,0-4.287-3.627A3.971,3.971,0,0,0,133.865,158.82Zm-.433-5.186a1.233,1.233,0,1,1-1.126,1.331A1.233,1.233,0,0,1,133.431,153.634Z" transform="translate(-82.062 -150.892)" fill="#ead300"/>
</svg>
